HIERARCHY
ROOT Hips
{
	OFFSET -0.001795 -0.223333 0.028219
	CHANNELS 6 Xposition Yposition Zposition Zrotation Yrotation Xrotation 
	JOINT LeftUpLeg
	{
		OFFSET 0.069520 -0.091406 -0.006815
		CHANNELS 3 Zrotation Yrotation Xrotation
		JOINT LeftLeg
		{
			OFFSET 0.034277 -0.375199 -0.004496
			CHANNELS 3 Zrotation Yrotation Xrotation
			JOINT LeftFoot
			{
				OFFSET -0.013596 -0.397961 -0.043693
				CHANNELS 3 Zrotation Yrotation Xrotation
				JOINT LeftToe
				{
					OFFSET 0.026358 -0.055791 0.119288
					CHANNELS 3 Zrotation Yrotation Xrotation
					End Site
					{
						OFFSET 0.000000 0.000000 0.000000
					}
				}
			}
		}
	}
	JOINT RightUpLeg
	{
		OFFSET -0.067670 -0.090522 -0.004320
		CHANNELS 3 Zrotation Yrotation Xrotation
		JOINT RightLeg
		{
			OFFSET -0.038290 -0.382569 -0.008850
			CHANNELS 3 Zrotation Yrotation Xrotation
			JOINT RightFoot
			{
				OFFSET 0.015774 -0.398415 -0.042312
				CHANNELS 3 Zrotation Yrotation Xrotation
				JOINT RightToe
				{
					OFFSET -0.025372 -0.048144 0.123348
					CHANNELS 3 Zrotation Yrotation Xrotation
					End Site
					{
						OFFSET 0.000000 0.000000 0.000000
					}
				}
			}
		}
	}
	JOINT Spine
	{
		OFFSET -0.002533 0.108963 -0.026696
		CHANNELS 3 Zrotation Yrotation Xrotation
		JOINT Spine1
		{
			OFFSET 0.005487 0.135180 0.001092
			CHANNELS 3 Zrotation Yrotation Xrotation
			JOINT Spine2
			{
				OFFSET 0.001457 0.052922 0.025425
				CHANNELS 3 Zrotation Yrotation Xrotation
				JOINT Neck
				{
					OFFSET -0.002778 0.213870 -0.042857
					CHANNELS 3 Zrotation Yrotation Xrotation
					JOINT Head
					{
						OFFSET 0.005152 0.064970 0.051349
						CHANNELS 3 Zrotation Yrotation Xrotation
						End Site
						{
							OFFSET 0.000000 0.000000 0.000000
						}
					}
				}
				JOINT LeftShoulder
				{
					OFFSET 0.078845 0.121749 -0.034090
					CHANNELS 3 Zrotation Yrotation Xrotation
					JOINT LeftArm
					{
						OFFSET 0.090977 0.030469 -0.008868
						CHANNELS 3 Zrotation Yrotation Xrotation
						JOINT LeftForeArm
						{
							OFFSET 0.259612 -0.012772 -0.027456
							CHANNELS 3 Zrotation Yrotation Xrotation
							JOINT LeftHand
							{
								OFFSET 0.249234 0.008986 -0.001171
								CHANNELS 3 Zrotation Yrotation Xrotation
								End Site
								{
									OFFSET 0.000000 0.000000 0.000000
								}
							}
						}
					}
				}
				JOINT RightShoulder
				{
					OFFSET -0.081759 0.118833 -0.038615
					CHANNELS 3 Zrotation Yrotation Xrotation
					JOINT RightArm
					{
						OFFSET -0.096012 0.032551 -0.009143
						CHANNELS 3 Zrotation Yrotation Xrotation
						JOINT RightForeArm
						{
							OFFSET -0.253742 -0.013329 -0.021401
							CHANNELS 3 Zrotation Yrotation Xrotation
							JOINT RightHand
							{
								OFFSET -0.255298 0.007772 -0.005559
								CHANNELS 3 Zrotation Yrotation Xrotation
								End Site
								{
									OFFSET 0.000000 0.000000 0.000000
								}
							}
						}
					}
				}
			}
		}
	}
}
MOTION
Frames: 13
Frame Time: 0.050000
0.000000 0.937432 0.000000 -2.473609 -7.973506 5.243775 7.449203 -0.193768 -7.096292 -2.911717 0.731632 22.629034 3.327651 8.168348 5.556183 0.000000 0.000000 0.000000 -4.193135 1.873532 -21.622590 6.452718 -0.596059 14.205373 -6.631289 -18.957333 19.523802 0.000000 0.000000 0.000000 -0.132713 -0.256801 7.014424 6.386588 -0.902996 -24.877452 -1.785217 -2.888891 30.687043 -0.963358 0.907201 -28.826834 0.000000 0.000000 0.000000 -27.343199 5.396379 -2.151365 -52.791185 -12.811118 -4.130268 -12.223088 -28.876321 5.433600 0.000000 0.000000 0.000000 16.391433 0.782235 -2.301939 60.020539 -2.566591 -9.997111 5.267437 26.301026 1.963378 0.000000 0.000000 0.000000 
-0.016395 0.939202 0.015384 -2.911407 -7.736560 6.155126 10.417287 0.040402 -11.880240 -4.756563 1.890021 31.923662 2.660886 7.046836 5.998263 0.000000 0.000000 0.000000 -3.611349 1.963680 -21.742750 7.330553 -0.787917 16.297808 -5.114798 -16.073717 15.562405 0.000000 0.000000 0.000000 0.886545 -0.317538 6.195997 6.786173 -1.050677 -24.211317 -1.146962 -2.646223 30.273537 -3.476381 2.388862 -28.757392 0.000000 0.000000 0.000000 -29.122802 6.424534 -3.152633 -52.324089 -11.719463 -4.579085 -12.107031 -29.762247 5.577459 0.000000 0.000000 0.000000 15.169963 1.172800 -1.798532 59.768965 -0.691624 -9.050126 4.670758 23.765005 1.657754 0.000000 0.000000 0.000000 
-0.029300 0.942242 0.030086 -2.442924 -6.951720 6.438891 10.048703 0.035740 -16.452449 -4.575008 2.076108 37.940174 4.718255 11.390394 9.770349 0.000000 0.000000 0.000000 -3.273747 1.900563 -20.942164 6.971900 -0.741620 16.832485 -4.936431 -15.429148 14.026857 0.000000 0.000000 0.000000 1.610205 -0.357506 5.737051 6.454907 -0.992744 -23.961510 -1.024287 -1.892851 29.931993 -4.289696 3.048699 -28.887777 0.000000 0.000000 0.000000 -30.150252 5.613354 -3.126084 -50.956883 -10.153006 -5.143742 -12.336298 -28.979866 5.352939 0.000000 0.000000 0.000000 15.287711 0.620396 -1.808105 57.665159 -2.499710 -9.513562 6.458050 23.931843 2.052136 0.000000 0.000000 0.000000 
-0.038266 0.945107 0.044768 -1.800366 -6.696514 6.521950 10.059574 0.104290 -20.419668 -7.473949 3.680269 40.454317 9.303542 18.961665 11.158726 0.000000 0.000000 0.000000 -3.612246 1.713145 -19.546502 6.939757 -0.746331 15.945951 -4.561328 -14.678080 13.700975 0.000000 0.000000 0.000000 0.857218 -0.285587 5.484362 7.675949 -1.273418 -23.833551 -1.451268 -0.710757 29.846305 -4.487895 3.383889 -29.720254 0.000000 0.000000 0.000000 -30.747135 6.574275 -4.479508 -50.775350 -9.017249 -5.390859 -14.296050 -29.007796 5.797667 0.000000 0.000000 0.000000 15.217684 1.379069 -1.120055 56.260455 -2.023750 -9.010020 7.204840 23.093072 2.153795 0.000000 0.000000 0.000000 
-0.044531 0.947786 0.058907 -0.720935 -5.339078 5.949086 8.706539 -0.188675 -23.339107 -8.806879 3.896252 38.816080 11.083660 22.197995 5.409994 0.000000 0.000000 0.000000 -4.553979 1.362875 -17.205453 6.597821 -0.733080 14.762102 -4.137501 -13.698132 13.473872 0.000000 0.000000 0.000000 0.494327 -0.297962 6.515813 7.050051 -1.132636 -23.716932 -1.299840 -0.189925 29.292618 -5.058994 3.917364 -29.731790 0.000000 0.000000 0.000000 -30.173634 6.008552 -4.623600 -50.777513 -7.828351 -5.652155 -15.518216 -29.047279 6.014977 0.000000 0.000000 0.000000 15.600021 0.781257 -1.163641 54.655267 -2.081098 -8.717152 8.261855 23.176690 2.405353 0.000000 0.000000 0.000000 
-0.048501 0.949465 0.072674 -0.081777 -4.440578 6.196651 8.207247 -0.354777 -25.415601 -9.761691 3.544375 32.291449 10.133092 20.723840 2.326438 0.000000 0.000000 0.000000 -4.798543 1.222475 -15.920181 6.435799 -0.733952 14.049096 -4.726343 -14.473634 12.607501 0.000000 0.000000 0.000000 0.200900 -0.275599 6.556858 6.626919 -1.042909 -23.498940 -0.977470 0.869935 28.947514 -6.135393 4.736038 -30.500818 0.000000 0.000000 0.000000 -30.621549 5.261790 -4.866105 -50.069099 -7.045300 -5.683985 -16.731697 -28.595973 6.088322 0.000000 0.000000 0.000000 15.469731 0.442226 -0.970339 54.472624 -2.063727 -8.642974 7.686077 23.757816 2.435605 0.000000 0.000000 0.000000 
-0.050929 0.949878 0.086897 0.285548 -3.206808 6.565425 7.654182 -0.577121 -26.034481 -9.899083 2.728448 23.848952 8.624457 17.945048 2.652729 0.000000 0.000000 0.000000 -5.126346 1.115071 -15.150171 7.159469 -0.952961 14.572185 -5.723065 -15.903807 10.910898 0.000000 0.000000 0.000000 0.250706 -0.285905 6.632633 6.141936 -0.917166 -23.393782 -0.777857 1.229883 28.775306 -6.569775 5.114802 -31.205846 0.000000 0.000000 0.000000 -29.997893 5.461913 -5.395649 -51.068535 -6.255629 -5.939779 -16.262288 -28.623011 5.906873 0.000000 0.000000 0.000000 15.829873 0.339073 -0.810168 53.087370 -1.425521 -8.142876 8.345221 23.893223 2.613689 0.000000 0.000000 0.000000 
-0.051832 0.948048 0.102368 0.520741 -1.840686 6.272715 6.877663 -0.819118 -24.987071 -10.105428 2.074157 15.284565 9.429619 19.464032 9.461334 0.000000 0.000000 0.000000 -4.615483 0.965589 -12.678609 6.924098 -0.935431 13.044060 -7.365288 -18.709585 9.612744 0.000000 0.000000 0.000000 -0.387586 -0.249591 7.096978 5.428398 -0.712183 -23.681230 0.076656 2.071990 29.401134 -6.067398 5.131366 -30.619999 0.000000 0.000000 0.000000 -29.918861 4.190759 -5.198432 -51.154824 -6.700946 -5.617222 -14.978502 -28.750227 5.466489 0.000000 0.000000 0.000000 15.591256 0.208249 -0.485597 53.977705 -1.093774 -8.168797 7.448907 24.706975 2.627803 0.000000 0.000000 0.000000 
-0.050854 0.945668 0.119931 0.465716 -0.097253 5.949757 5.672432 -1.132553 -24.112874 -8.846754 1.442652 10.725181 10.900402 21.675117 17.281114 0.000000 0.000000 0.000000 -4.004524 0.821232 -10.303048 6.853938 -0.969259 12.027416 -8.894993 -21.458587 8.714712 0.000000 0.000000 0.000000 -1.307228 -0.179018 7.280612 5.366448 -0.636643 -24.235190 0.275155 1.892446 30.122220 -5.924963 5.193181 -31.277011 0.000000 0.000000 0.000000 -28.971788 3.714117 -5.066398 -52.391744 -7.331431 -5.455775 -13.450544 -27.842643 4.849179 0.000000 0.000000 0.000000 16.211213 0.909606 0.092839 54.024674 0.353184 -7.665396 6.467755 25.488299 2.579952 0.000000 0.000000 0.000000 
-0.047225 0.943860 0.139687 -0.033865 1.763490 5.877188 5.140360 -1.309554 -23.616883 -7.680944 1.120570 10.255358 11.116601 22.085063 20.286659 0.000000 0.000000 0.000000 -3.580304 0.694221 -8.363653 7.104311 -1.075143 11.292194 -9.687348 -22.853255 9.070763 0.000000 0.000000 0.000000 -2.130034 -0.101647 6.770825 5.444554 -0.626093 -24.332510 0.241209 2.263823 30.671693 -5.079815 5.021049 -30.396206 0.000000 0.000000 0.000000 -28.193634 3.108451 -5.146767 -52.786760 -7.653709 -5.262618 -11.845815 -26.888771 4.175056 0.000000 0.000000 0.000000 17.357731 0.631000 0.308662 54.524931 1.639217 -7.281036 4.885332 25.772318 2.379084 0.000000 0.000000 0.000000 
-0.040213 0.944038 0.159889 -0.402489 2.917727 5.650712 4.808207 -1.322345 -21.904362 -7.048598 0.946175 9.693705 10.126556 20.933572 18.636104 0.000000 0.000000 0.000000 -3.354500 0.635750 -7.525753 7.175501 -1.199910 13.165109 -10.072424 -23.519890 9.262594 0.000000 0.000000 0.000000 -2.971241 -0.022478 5.931371 5.246097 -0.528994 -24.942580 0.403927 2.084346 31.811337 -4.613587 4.883835 -30.518806 0.000000 0.000000 0.000000 -27.822749 2.873285 -5.117516 -53.378898 -7.661003 -5.382019 -10.734858 -26.028201 3.755900 0.000000 0.000000 0.000000 17.257301 0.645590 0.500863 55.330259 2.973425 -6.909665 4.834709 26.269599 2.488607 0.000000 0.000000 0.000000 
-0.030480 0.947067 0.179167 -0.496101 3.566139 5.518390 3.961159 -1.394806 -20.615597 -6.217070 0.774620 9.869764 9.240270 19.800067 17.733332 0.000000 0.000000 0.000000 -4.153971 0.628464 -8.023047 8.009773 -1.574699 16.333526 -10.576018 -24.101250 11.965560 0.000000 0.000000 0.000000 -3.977915 0.059366 4.865447 5.141898 -0.545244 -24.247285 0.351716 2.141793 31.106055 -4.431532 4.854173 -30.350559 0.000000 0.000000 0.000000 -27.160671 3.237739 -5.454165 -53.695936 -7.180389 -5.490226 -10.143793 -25.304003 3.460790 0.000000 0.000000 0.000000 17.675747 1.300239 0.952155 56.412307 4.161533 -6.379251 3.091641 26.774672 2.196351 0.000000 0.000000 0.000000 
-0.019786 0.952613 0.196568 -0.490674 4.908258 5.179554 3.007007 -1.373531 -18.063332 -5.617993 0.615971 8.043720 7.809820 17.954834 17.149675 0.000000 0.000000 0.000000 -5.661005 0.609094 -9.651634 9.360352 -2.415762 21.956662 -10.185553 -22.923748 15.853162 0.000000 0.000000 0.000000 -4.719471 0.098022 4.452132 5.206127 -0.528671 -24.526086 0.245217 2.079285 31.325657 -3.760170 4.630810 -29.617570 0.000000 0.000000 0.000000 -26.683962 3.015998 -5.519579 -53.974412 -7.148281 -5.494113 -9.136721 -25.131286 3.164683 0.000000 0.000000 0.000000 17.410032 1.281046 1.147884 57.264206 5.216758 -5.970616 3.552981 27.780295 2.479132 0.000000 0.000000 0.000000 
